<svg width="917" height="1024" viewBox="0 0 917 1024" fill="none" xmlns="http://www.w3.org/2000/svg">
<rect width="917" height="1024" fill="#26C061"/>
<line x1="151" y1="221" x2="486" y2="221" stroke="url(#paint0_linear_0_1)" stroke-width="2"/>
<g clip-path="url(#clip0_0_1)">
<path d="M627.833 130.638C627.711 130.638 627.593 130.596 627.503 130.521C627.413 130.446 627.359 130.344 627.35 130.234C627.033 126.381 625.103 122.777 621.944 120.144C618.785 117.51 614.632 116.041 610.315 116.031C609.799 116.031 609.256 116.054 608.702 116.101C608.61 116.108 608.516 116.092 608.434 116.054C608.351 116.015 608.283 115.957 608.236 115.884C606.253 112.779 603.292 110.264 599.722 108.655C596.153 107.046 592.133 106.413 588.164 106.835C584.195 107.258 580.452 108.717 577.404 111.031C574.356 113.344 572.136 116.41 571.022 119.846C570.993 119.938 570.93 120.018 570.844 120.075C570.758 120.132 570.653 120.161 570.546 120.158L570.417 120.155C570.35 120.155 570.283 120.151 570.216 120.151C566.941 120.16 563.769 121.17 561.225 123.015C558.681 124.86 556.918 127.428 556.229 130.293C556.206 130.39 556.147 130.478 556.06 130.54C555.974 130.603 555.866 130.637 555.755 130.637H523.287C523.158 130.637 523.035 130.591 522.944 130.51C522.853 130.429 522.802 130.318 522.802 130.203C522.802 130.088 522.853 129.978 522.944 129.897C523.035 129.815 523.158 129.77 523.287 129.77H555.365C556.173 126.79 558.072 124.138 560.761 122.237C563.449 120.337 566.771 119.297 570.197 119.283C571.417 115.752 573.756 112.614 576.931 110.251C580.105 107.887 583.978 106.399 588.079 105.968C592.181 105.537 596.334 106.181 600.034 107.823C603.734 109.464 606.821 112.031 608.922 115.213C609.398 115.18 609.866 115.163 610.316 115.163C614.878 115.174 619.267 116.726 622.605 119.509C625.943 122.293 627.983 126.101 628.318 130.173C628.322 130.23 628.314 130.287 628.294 130.341C628.274 130.395 628.242 130.445 628.2 130.488C628.159 130.531 628.108 130.566 628.051 130.592C627.994 130.617 627.932 130.632 627.868 130.636L627.833 130.638Z" fill="#D6D6E3"/>
<path d="M622.068 136.199H542.592C542.464 136.199 542.34 136.153 542.249 136.072C542.158 135.99 542.107 135.88 542.107 135.765C542.107 135.65 542.158 135.539 542.249 135.458C542.34 135.377 542.464 135.331 542.592 135.331H622.068C622.196 135.331 622.32 135.377 622.411 135.458C622.502 135.539 622.553 135.65 622.553 135.765C622.553 135.88 622.502 135.99 622.411 136.072C622.32 136.153 622.196 136.199 622.068 136.199Z" fill="#D6D6E3"/>
<path d="M561.976 142.488H535.322C535.194 142.488 535.07 142.442 534.979 142.361C534.888 142.279 534.837 142.169 534.837 142.054C534.837 141.939 534.888 141.828 534.979 141.747C535.07 141.666 535.194 141.62 535.322 141.62H561.976C562.104 141.62 562.228 141.666 562.318 141.747C562.409 141.828 562.46 141.939 562.46 142.054C562.46 142.169 562.409 142.279 562.318 142.361C562.228 142.442 562.104 142.488 561.976 142.488Z" fill="#D6D6E3"/>
<path d="M566.553 268.32C566.553 294.612 535.754 307.192 535.754 307.192C535.754 307.192 504.639 294.612 504.007 268.32C503.636 252.866 518.008 240.332 535.28 240.332C539.386 240.332 543.453 241.055 547.247 242.462C551.041 243.869 554.489 245.93 557.393 248.529C560.297 251.128 562.6 254.213 564.172 257.609C565.743 261.005 566.552 264.644 566.552 268.32H566.553Z" fill="#E6E6E6"/>
<path d="M546.179 308.747H525.33L522.803 299.7H548.706L546.179 308.747Z" fill="#CBCBCB"/>
<path d="M545.468 324.219H526.041V333.279H545.468V324.219Z" fill="white"/>
<path d="M545.626 333.421H525.88V324.076H545.626V333.421ZM526.199 333.138H545.31V324.36H526.199V333.138Z" fill="#CBCBCB"/>
<path d="M539.736 309.814H531.772L530.858 308.53H540.65L539.736 309.814Z" fill="#CBCBCB"/>
<path d="M525.804 308.747H525.488V322.6H525.804V308.747Z" fill="#CBCBCB"/>
<path d="M546.02 308.747H545.705V322.6H546.02V308.747Z" fill="#CBCBCB"/>
<path d="M538.922 299.547L538.729 299.323C547.855 293.025 558.734 282.235 558.734 266.599C558.741 261.123 556.941 255.767 553.561 251.202C550.18 246.637 545.369 243.068 539.731 240.941L539.854 240.68C545.55 242.829 550.41 246.435 553.825 251.046C557.24 255.657 559.058 261.067 559.05 266.599C559.047 282.35 548.102 293.211 538.922 299.547Z" fill="#CBCBCB"/>
<path d="M528.812 299.547L528.619 299.323C537.745 293.024 548.623 282.235 548.623 266.599C548.625 261.159 546.847 255.838 543.508 251.293C540.17 246.748 535.416 243.177 529.836 241.023L529.961 240.763C535.598 242.94 540.4 246.546 543.772 251.138C547.145 255.729 548.941 261.104 548.938 266.599C548.939 282.35 537.993 293.21 528.812 299.547Z" fill="#CBCBCB"/>
<path d="M541.748 299.547C532.567 293.21 521.622 282.35 521.622 266.599C521.619 261.104 523.415 255.729 526.788 251.138C530.161 246.546 534.962 242.94 540.6 240.763L540.725 241.023C535.144 243.177 530.391 246.748 527.052 251.293C523.713 255.838 521.935 261.159 521.937 266.599C521.937 282.233 532.815 293.025 541.941 299.323L541.748 299.547Z" fill="#CBCBCB"/>
<path d="M531.64 299.547C522.458 293.21 511.513 282.35 511.513 266.599C511.503 261.045 513.333 255.614 516.773 250.991C520.213 246.369 525.108 242.764 530.838 240.632L530.96 240.893C525.287 243.003 520.442 246.572 517.036 251.148C513.631 255.724 511.819 261.101 511.829 266.599C511.829 282.233 522.707 293.025 531.833 299.323L531.64 299.547Z" fill="#CBCBCB"/>
<path d="M535.438 240.332H535.122V299.7H535.438V240.332Z" fill="#CBCBCB"/>
<path d="M531.723 322.165L525.931 327.349L526.154 327.549L531.946 322.365L531.723 322.165Z" fill="#CBCBCB"/>
<path d="M534.539 322.079L525.928 330.183L526.157 330.378L534.767 322.273L534.539 322.079Z" fill="#CBCBCB"/>
<path d="M547.284 322.176H523.592V324.72H547.284V322.176Z" fill="white"/>
<path d="M547.442 324.863H523.434V322.036H547.442V324.863ZM523.75 324.58H547.126V322.318H523.75L523.75 324.58Z" fill="#CBCBCB"/>
<path d="M626.158 201.688C626.158 219.042 605.829 227.346 605.829 227.346C605.829 227.346 585.292 219.042 584.875 201.688C584.627 191.488 594.117 183.214 605.516 183.214C610.991 183.214 616.241 185.161 620.112 188.625C623.983 192.09 626.158 196.788 626.158 201.688Z" fill="#E6E6E6"/>
<path d="M612.71 228.372H598.948L597.281 222.401H614.378L612.71 228.372Z" fill="#CBCBCB"/>
<path d="M612.24 238.583H599.417V244.564H612.24V238.583Z" fill="white"/>
<path d="M612.344 244.655H599.313V238.49H612.344V244.655ZM599.522 244.469H612.136V238.676H599.522V244.469Z" fill="#CBCBCB"/>
<path d="M608.457 229.076H603.2L602.597 228.227H609.061L608.457 229.076Z" fill="#CBCBCB"/>
<path d="M599.261 228.372H599.052V237.515H599.261V228.372Z" fill="#CBCBCB"/>
<path d="M612.605 228.372H612.397V237.515H612.605V228.372Z" fill="#CBCBCB"/>
<path d="M607.919 222.3L607.792 222.152C613.816 217.995 620.996 210.873 620.996 200.552C621 196.938 619.813 193.402 617.581 190.389C615.35 187.376 612.174 185.02 608.452 183.616L608.533 183.445C612.292 184.863 615.5 187.243 617.754 190.287C620.007 193.33 621.207 196.901 621.202 200.552C621.205 210.949 613.98 218.117 607.919 222.3Z" fill="#CBCBCB"/>
<path d="M601.247 222.299L601.12 222.151C607.144 217.994 614.324 210.873 614.324 200.552C614.325 196.962 613.152 193.45 610.948 190.45C608.744 187.45 605.607 185.093 601.923 183.671L602.006 183.5C605.727 184.936 608.896 187.316 611.122 190.347C613.348 193.377 614.533 196.924 614.532 200.551C614.532 210.948 607.307 218.116 601.247 222.299Z" fill="#CBCBCB"/>
<path d="M609.785 222.299C603.725 218.117 596.503 210.948 596.503 200.552C596.501 196.926 597.687 193.378 599.913 190.348C602.139 187.318 605.308 184.937 609.029 183.501L609.112 183.672C605.428 185.094 602.291 187.451 600.087 190.451C597.883 193.451 596.71 196.963 596.711 200.554C596.711 210.873 603.891 217.996 609.915 222.153L609.785 222.299Z" fill="#CBCBCB"/>
<path d="M603.114 222.3C597.053 218.117 589.829 210.949 589.829 200.554C589.822 196.888 591.03 193.303 593.301 190.252C595.572 187.201 598.802 184.821 602.584 183.414L602.665 183.586C598.92 184.979 595.722 187.335 593.475 190.355C591.227 193.375 590.031 196.924 590.037 200.553C590.037 210.873 597.218 217.996 603.241 222.153L603.114 222.3Z" fill="#CBCBCB"/>
<path d="M605.62 183.214H605.412V222.401H605.62V183.214Z" fill="#CBCBCB"/>
<path d="M603.169 237.228L599.346 240.65L599.493 240.781L603.316 237.36L603.169 237.228Z" fill="#CBCBCB"/>
<path d="M605.028 237.171L599.344 242.52L599.495 242.649L605.179 237.299L605.028 237.171Z" fill="#CBCBCB"/>
<path d="M613.439 237.235H597.802V238.915H613.439V237.235Z" fill="white"/>
<path d="M613.543 239.008H597.698V237.142H613.543V239.008ZM597.906 238.822H613.335V237.329H597.906L597.906 238.822Z" fill="#CBCBCB"/>
<path d="M798.919 226.675C799.037 226.674 799.15 226.634 799.237 226.562C799.323 226.49 799.375 226.392 799.384 226.287C799.689 222.578 801.547 219.11 804.587 216.575C807.626 214.041 811.624 212.627 815.778 212.617C816.273 212.617 816.798 212.64 817.331 212.684C817.42 212.692 817.509 212.676 817.589 212.639C817.668 212.602 817.734 212.546 817.779 212.476C819.687 209.487 822.537 207.066 825.973 205.517C829.409 203.968 833.278 203.359 837.098 203.766C840.918 204.172 844.52 205.577 847.454 207.804C850.388 210.031 852.524 212.982 853.595 216.289C853.624 216.377 853.684 216.455 853.767 216.51C853.85 216.564 853.951 216.592 854.054 216.59L854.178 216.586C854.243 216.586 854.308 216.582 854.372 216.582C857.524 216.591 860.577 217.564 863.025 219.339C865.473 221.115 867.17 223.586 867.833 226.343C867.855 226.437 867.912 226.521 867.995 226.581C868.078 226.642 868.182 226.675 868.289 226.675H899.534C899.658 226.675 899.777 226.631 899.864 226.552C899.952 226.474 900.001 226.368 900.001 226.257C900.001 226.146 899.952 226.04 899.864 225.962C899.777 225.884 899.658 225.84 899.534 225.84H868.662C867.884 222.972 866.056 220.42 863.469 218.59C860.882 216.761 857.684 215.76 854.387 215.747C853.213 212.349 850.962 209.329 847.907 207.054C844.852 204.78 841.125 203.348 837.178 202.933C833.231 202.518 829.234 203.138 825.673 204.717C822.112 206.297 819.14 208.768 817.119 211.83C816.66 211.798 816.21 211.782 815.777 211.782C811.387 211.793 807.164 213.286 803.951 215.965C800.739 218.643 798.775 222.308 798.453 226.226C798.449 226.281 798.456 226.335 798.476 226.387C798.495 226.439 798.526 226.487 798.566 226.529C798.606 226.57 798.655 226.604 798.71 226.629C798.765 226.653 798.824 226.668 798.885 226.671L798.919 226.675Z" fill="#D6D6E3"/>
<path d="M804.468 232.026H880.956C881.079 232.026 881.198 231.982 881.285 231.904C881.373 231.825 881.422 231.719 881.422 231.609C881.422 231.498 881.373 231.392 881.285 231.313C881.198 231.235 881.079 231.191 880.956 231.191H804.468C804.344 231.191 804.226 231.235 804.138 231.313C804.051 231.392 804.001 231.498 804.001 231.609C804.001 231.719 804.051 231.825 804.138 231.904C804.226 231.982 804.344 232.026 804.468 232.026Z" fill="#D6D6E3"/>
<path d="M862.3 238.079H887.951C888.075 238.079 888.194 238.035 888.281 237.957C888.369 237.878 888.418 237.772 888.418 237.662C888.418 237.551 888.369 237.445 888.281 237.366C888.194 237.288 888.075 237.244 887.951 237.244H862.3C862.176 237.244 862.058 237.288 861.97 237.366C861.883 237.445 861.833 237.551 861.833 237.662C861.833 237.772 861.883 237.878 861.97 237.957C862.058 238.035 862.176 238.079 862.3 238.079Z" fill="#D6D6E3"/>
<path d="M694.429 277.306C694.298 277.306 694.172 277.261 694.076 277.181C693.98 277.101 693.922 276.992 693.912 276.875C693.574 272.757 691.51 268.905 688.134 266.09C684.758 263.276 680.32 261.706 675.706 261.694C675.153 261.694 674.573 261.72 673.982 261.769C673.883 261.778 673.783 261.76 673.695 261.719C673.606 261.678 673.533 261.615 673.484 261.538C671.364 258.218 668.2 255.53 664.384 253.81C660.568 252.089 656.271 251.412 652.029 251.864C647.786 252.316 643.786 253.876 640.528 256.349C637.269 258.822 634.897 262.1 633.707 265.772C633.676 265.871 633.609 265.957 633.517 266.017C633.424 266.078 633.312 266.109 633.198 266.107L633.061 266.103C632.989 266.103 632.917 266.098 632.845 266.098C629.346 266.108 625.955 267.188 623.236 269.16C620.517 271.132 618.633 273.876 617.896 276.938C617.872 277.042 617.808 277.135 617.716 277.202C617.624 277.269 617.508 277.306 617.39 277.306H582.689C582.62 277.308 582.551 277.297 582.486 277.275C582.422 277.253 582.363 277.219 582.313 277.175C582.263 277.132 582.223 277.08 582.196 277.023C582.169 276.966 582.155 276.905 582.155 276.843C582.155 276.78 582.169 276.719 582.196 276.662C582.223 276.605 582.263 276.553 582.313 276.51C582.363 276.466 582.422 276.433 582.486 276.41C582.551 276.388 582.62 276.377 582.689 276.379H616.975C617.838 273.194 619.868 270.36 622.742 268.328C625.615 266.297 629.166 265.185 632.827 265.171C634.131 261.397 636.631 258.044 640.024 255.517C643.417 252.991 647.556 251.401 651.94 250.94C656.323 250.479 660.762 251.168 664.716 252.922C668.671 254.676 671.971 257.42 674.216 260.821C674.726 260.785 675.225 260.767 675.706 260.767C680.582 260.779 685.273 262.438 688.84 265.413C692.408 268.387 694.589 272.458 694.947 276.81C694.951 276.87 694.943 276.931 694.921 276.989C694.9 277.047 694.866 277.1 694.821 277.146C694.776 277.192 694.722 277.23 694.661 277.257C694.6 277.284 694.534 277.3 694.466 277.305L694.429 277.306Z" fill="#D6D6E3"/>
<path d="M688.266 283.25H603.322C603.253 283.252 603.184 283.241 603.119 283.219C603.054 283.196 602.995 283.162 602.946 283.119C602.896 283.076 602.856 283.024 602.829 282.967C602.802 282.91 602.788 282.848 602.788 282.786C602.788 282.724 602.802 282.663 602.829 282.605C602.856 282.548 602.896 282.496 602.946 282.453C602.995 282.41 603.054 282.376 603.119 282.354C603.184 282.331 603.253 282.321 603.322 282.323H688.266C688.336 282.321 688.405 282.331 688.469 282.354C688.534 282.376 688.593 282.41 688.643 282.453C688.693 282.496 688.732 282.548 688.759 282.605C688.786 282.663 688.8 282.724 688.8 282.786C688.8 282.848 688.786 282.91 688.759 282.967C688.732 283.024 688.693 283.076 688.643 283.119C688.593 283.162 688.534 283.196 688.469 283.219C688.405 283.241 688.336 283.252 688.266 283.25Z" fill="#D6D6E3"/>
<path d="M624.04 289.971H595.553C595.483 289.973 595.414 289.962 595.35 289.94C595.285 289.917 595.226 289.884 595.176 289.84C595.126 289.797 595.087 289.745 595.06 289.688C595.032 289.631 595.019 289.57 595.019 289.508C595.019 289.445 595.032 289.384 595.06 289.327C595.087 289.27 595.126 289.218 595.176 289.175C595.226 289.131 595.285 289.098 595.35 289.075C595.414 289.053 595.483 289.042 595.553 289.044H624.04C624.11 289.042 624.179 289.053 624.243 289.075C624.308 289.098 624.367 289.131 624.417 289.175C624.467 289.218 624.506 289.27 624.533 289.327C624.56 289.384 624.574 289.445 624.574 289.508C624.574 289.57 624.56 289.631 624.533 289.688C624.506 289.745 624.467 289.797 624.417 289.84C624.367 289.884 624.308 289.917 624.243 289.94C624.179 289.962 624.11 289.973 624.04 289.971H624.04Z" fill="#D6D6E3"/>
<path d="M741.435 286.364H744.379L744.633 288.815C744.633 288.815 742.653 289.427 741.967 288.815C741.28 288.202 741.435 286.364 741.435 286.364Z" fill="#9F616A"/>
<path d="M753.962 287.769H756.906L757.16 290.219C757.16 290.219 755.18 290.832 754.494 290.219C753.807 289.607 753.962 287.769 753.962 287.769Z" fill="#ED9DA0"/>
<path d="M739.778 314.625C743.437 314.611 747.071 315.155 750.525 316.235C750.646 311.046 748.702 305.987 745.041 301.961L745.014 301.932L745.028 301.897C745.992 299.404 746.988 296.828 747.878 294.264L747.865 294.22C747.24 292.234 745.9 290.226 743.768 288.083C743.536 287.869 743.223 287.741 742.89 287.726C742.557 287.711 742.231 287.81 741.976 288.002C740.108 289.531 738.653 291.421 737.721 293.527C736.79 295.634 736.405 297.902 736.598 300.162V300.174L736.594 300.187C734.925 305.249 734.318 307.849 733.784 310.144C733.394 311.818 733.056 313.267 732.378 315.337C734.809 314.864 737.29 314.625 739.778 314.625Z" fill="#26C061"/>
<path opacity="0.1" d="M745.165 298.622L739.733 309.207L736.63 306.396L745.165 298.622Z" fill="black"/>
<path d="M742.842 287.054C744.976 287.054 746.706 285.506 746.706 283.596C746.706 281.685 744.976 280.137 742.842 280.137C740.708 280.137 738.978 281.685 738.978 283.596C738.978 285.506 740.708 287.054 742.842 287.054Z" fill="#9F616A"/>
<path d="M738.157 281.642H744.293V279.248C742.946 278.769 741.628 278.362 740.831 279.248C740.122 279.248 739.442 279.5 738.94 279.949C738.439 280.398 738.157 281.007 738.157 281.642Z" fill="#090814"/>
<path d="M744.633 278.826C748.302 278.826 749.329 282.941 749.329 285.263C749.329 286.557 748.674 287.02 747.646 287.177L747.283 285.444L746.433 287.252C746.144 287.252 745.839 287.248 745.526 287.243L745.238 286.711L744.594 287.233C742.021 287.237 739.938 287.572 739.938 285.263C739.938 282.941 740.839 278.826 744.633 278.826Z" fill="#090814"/>
<path d="M747.009 23.0024C806.443 23.0025 854.439 66.1008 854.439 119.04C854.439 164.195 827.995 197.636 801.406 219.846C788.12 230.944 774.828 239.21 764.857 244.702C759.872 247.447 755.72 249.498 752.817 250.861C751.366 251.542 750.227 252.051 749.453 252.389C749.115 252.537 748.847 252.651 748.652 252.734C748.455 252.651 748.182 252.537 747.838 252.388C747.055 252.05 745.904 251.54 744.435 250.859C741.498 249.496 737.294 247.445 732.241 244.7C722.132 239.207 708.634 230.939 695.073 219.839C667.932 197.624 640.668 164.176 639.583 119.016C638.314 66.1278 687.551 23.0024 747.009 23.0024Z" fill="#26C061" stroke="#E4E4E4" stroke-width="2"/>
<path d="M759.115 315.614C758.873 315.474 758.667 315.288 758.514 315.07C758.36 314.852 758.262 314.606 758.226 314.35C758.189 314.094 758.216 313.834 758.305 313.588C758.393 313.343 758.54 313.118 758.737 312.928L757.254 294.105L761.524 294.476L761.641 312.91C761.973 313.226 762.164 313.64 762.178 314.073C762.192 314.507 762.028 314.93 761.718 315.263C761.407 315.595 760.971 315.815 760.492 315.88C760.013 315.944 759.524 315.85 759.117 315.614L759.115 315.614Z" fill="#ED9DA0"/>
<path d="M758.22 300.429C758.12 300.365 758.037 300.282 757.978 300.185C757.919 300.088 757.885 299.981 757.878 299.871L757.566 294.797C757.534 294.294 757.712 293.799 758.065 293.407C758.418 293.015 758.921 292.753 759.476 292.673C760.031 292.593 760.6 292.7 761.073 292.973C761.546 293.246 761.889 293.666 762.036 294.152L763.41 298.688C763.467 298.877 763.438 299.079 763.329 299.249C763.22 299.419 763.04 299.543 762.829 299.595L758.919 300.543C758.801 300.572 758.676 300.577 758.555 300.557C758.434 300.538 758.319 300.494 758.22 300.429Z" fill="#F2F2F2"/>
<path d="M754.57 288.372C757.06 288.372 759.079 286.565 759.079 284.336C759.079 282.107 757.06 280.3 754.57 280.3C752.079 280.3 750.061 282.107 750.061 284.336C750.061 286.565 752.079 288.372 754.57 288.372Z" fill="#ED9DA0"/>
<path d="M757.76 287.529C757.572 287.711 757.329 287.841 757.061 287.904C756.793 287.967 756.51 287.96 756.246 287.884C755.982 287.808 755.748 287.666 755.571 287.475C755.394 287.284 755.282 287.051 755.247 286.805C755.238 286.72 755.238 286.635 755.247 286.55C755.304 286.062 755.617 285.624 755.544 285.111C755.528 284.983 755.474 284.861 755.39 284.757C754.719 283.953 753.146 285.116 752.513 284.389C752.125 283.943 752.581 283.241 752.284 282.742C751.891 282.084 750.727 282.409 749.997 282.049C749.185 281.648 749.234 280.533 749.768 279.854C750.116 279.454 750.558 279.127 751.064 278.896C751.569 278.666 752.125 278.538 752.692 278.522C753.826 278.498 754.954 278.694 755.995 279.098C757.225 279.456 758.31 280.13 759.116 281.035C759.533 281.628 759.797 282.298 759.89 282.994C759.982 283.69 759.9 284.396 759.65 285.061C759.377 285.879 758.447 286.874 757.76 287.529Z" fill="#090814"/>
<path d="M759.07 291.068C758.992 291.017 758.912 290.968 758.831 290.919C758.398 290.661 757.929 290.456 757.436 290.307V289.247H753.949V290.231C752.792 290.516 751.755 291.1 750.966 291.908C750.178 292.717 749.672 293.716 749.513 294.78L747.137 310.562C747.122 310.661 747.129 310.761 747.158 310.858C747.188 310.954 747.239 311.043 747.308 311.121C747.376 311.199 747.46 311.263 747.557 311.31C747.653 311.358 747.759 311.387 747.869 311.396C749.533 311.589 751.136 312.081 752.583 312.842C753.634 313.362 754.817 313.632 756.018 313.626C756.971 313.623 757.917 313.472 758.813 313.18C758.965 313.13 759.097 313.041 759.192 312.924C759.287 312.807 759.342 312.667 759.349 312.522C759.434 310.824 759.934 302.081 761.391 296.748C761.674 295.702 761.605 294.604 761.192 293.593C760.779 292.582 760.041 291.703 759.071 291.067L759.07 291.068Z" fill="#F2F2F2"/>
<path d="M784.797 259.209H712.514L703.75 227.842H793.559L784.797 259.209Z" fill="#090814"/>
<path d="M762.464 262.907H734.85L731.683 258.45H765.631L762.464 262.907Z" fill="#090814"/>
<path d="M714.155 259.209H713.06V307.239H714.155V259.209Z" fill="#090814"/>
<path d="M784.249 259.209H783.154V307.239H784.249V259.209Z" fill="#090814"/>
<path d="M759.632 227.311L758.964 226.535C790.604 204.698 828.321 167.286 828.321 113.076C828.346 94.0881 822.107 75.5166 810.385 59.6902C798.664 43.8637 781.982 31.487 762.432 24.1122L762.858 23.2095C782.607 30.6589 799.459 43.1611 811.3 59.1481C823.14 75.1352 829.443 93.8953 829.418 113.076C829.418 167.684 791.467 205.34 759.632 227.311Z" fill="#090814"/>
<path d="M724.585 227.311L723.916 226.535C755.556 204.698 793.273 167.287 793.273 113.075C793.282 94.2151 787.117 75.7663 775.541 60.0072C763.965 44.2481 747.484 31.8691 728.135 24.3992L728.569 23.4992C748.115 31.0447 764.764 43.5492 776.458 59.4683C788.152 75.3874 794.379 94.0235 794.37 113.075C794.37 167.686 756.42 205.34 724.585 227.311Z" fill="#090814"/>
<path d="M769.438 227.311C737.603 205.339 699.655 167.686 699.655 113.075C699.646 94.0236 705.873 75.3875 717.567 59.4684C729.261 43.5494 745.909 31.0448 765.455 23.4992L765.889 24.3992C746.54 31.8689 730.059 44.248 718.482 60.0072C706.906 75.7664 700.741 94.2153 700.75 113.075C700.75 167.288 738.466 204.698 770.107 226.535L769.438 227.311Z" fill="#090814"/>
<path d="M734.39 227.311C702.556 205.339 664.607 167.686 664.607 113.074C664.571 93.8188 670.918 74.9865 682.845 58.9603C694.772 42.9341 711.742 30.4342 731.609 23.0421L732.031 23.9465C712.364 31.2642 695.564 43.6386 683.757 59.5038C671.95 75.3691 665.667 94.0122 665.702 113.074C665.702 167.287 703.419 204.697 735.059 226.534L734.39 227.311Z" fill="#090814"/>
<path d="M747.559 22H746.464V227.842H747.559V22Z" fill="#090814"/>
<path d="M788.63 305.768H706.488V314.59H788.63V305.768Z" fill="white"/>
<path d="M733.055 309.871C733.275 309.857 733.488 309.801 733.681 309.705C733.873 309.61 734.04 309.478 734.169 309.318C734.298 309.159 734.387 308.976 734.429 308.782C734.471 308.589 734.465 308.39 734.411 308.199L738.887 305.574L736.334 304.587L732.474 307.231C732.121 307.333 731.823 307.547 731.635 307.833C731.447 308.119 731.383 308.456 731.454 308.781C731.526 309.107 731.728 309.397 732.023 309.598C732.318 309.799 732.685 309.896 733.054 309.871H733.055Z" fill="#9F616A"/>
<path d="M737.362 307.98L737.305 307.945C736.24 307.243 735.058 306.518 733.914 305.816L733.845 305.771L733.899 305.715C736.34 303.159 738.784 300.488 741.147 297.907L741.143 297.897L741.165 297.887L741.174 297.877L741.179 297.881L741.194 297.874L741.129 297.878L740.401 292.766C740.04 292.234 739.856 291.621 739.87 291C739.884 290.378 740.095 289.772 740.479 289.254C740.921 288.695 741.578 288.301 742.324 288.149C743.07 287.996 743.853 288.095 744.522 288.428C744.853 288.626 745.129 288.888 745.331 289.195C745.532 289.501 745.654 289.845 745.688 290.199C745.735 290.515 745.702 290.837 745.592 291.14C745.483 291.444 745.298 291.721 745.053 291.953C745.305 294.434 745.416 296.925 745.387 299.417V299.44L745.37 299.459C742.851 302.324 740.083 305.172 737.407 307.929L737.362 307.98Z" fill="#26C061"/>
<path d="M738.229 292.265C738.251 292.354 738.266 292.444 738.273 292.534L746.16 296.606L748.077 295.619L750.121 298.013L746.02 300.629L737.022 294.276C736.655 294.397 736.255 294.416 735.876 294.329C735.497 294.243 735.156 294.055 734.9 293.79C734.643 293.526 734.482 293.198 734.438 292.85C734.395 292.502 734.471 292.151 734.656 291.842C734.841 291.534 735.127 291.283 735.475 291.123C735.823 290.964 736.218 290.903 736.606 290.949C736.994 290.995 737.357 291.145 737.647 291.38C737.937 291.615 738.14 291.924 738.229 292.265L738.229 292.265Z" fill="#ED9DA0"/>
<path d="M746.441 296.26C746.428 296.151 746.442 296.04 746.483 295.936C746.524 295.832 746.591 295.738 746.678 295.66L750.692 292.067C751.09 291.711 751.621 291.5 752.182 291.474C752.744 291.447 753.297 291.608 753.734 291.925C754.171 292.241 754.462 292.692 754.55 293.189C754.638 293.686 754.517 294.195 754.211 294.617L751.353 298.559C751.233 298.723 751.046 298.838 750.832 298.879C750.618 298.92 750.394 298.883 750.21 298.777L746.813 296.803C746.709 296.744 746.622 296.664 746.558 296.57C746.493 296.476 746.453 296.371 746.441 296.261V296.26Z" fill="#F2F2F2"/>
<path d="M711.25 313.12H783.954V345H711.25V313.12Z" fill="#E6E6E6"/>
<path d="M705.773 305.412H789.01V314.724H705.773V305.412Z" fill="#E6E6E6"/>
</g>
<path d="M784 846.946H112V847.282H784V846.946Z" fill="#EBEBEB"/>
<path d="M716.666 868.571H687.528V868.907H716.666V868.571Z" fill="#EBEBEB"/>
<path d="M575.236 861.609H529.393V861.945H575.236V861.609Z" fill="#EBEBEB"/>
<path d="M704.865 856.098H645.017V856.434H704.865V856.098Z" fill="#EBEBEB"/>
<path d="M344.539 862.872H329.567V863.208H344.539V862.872Z" fill="#EBEBEB"/>
<path d="M317.592 862.872H265.996V863.208H317.592V862.872Z" fill="#EBEBEB"/>
<path d="M238.349 857.2H201.121V857.536H238.349V857.2Z" fill="#EBEBEB"/>
<path d="M430.528 787.003H171.015C168.982 787 167.033 786.19 165.597 784.751C164.161 783.312 163.354 781.362 163.354 779.329V414.527C163.372 412.506 164.186 410.573 165.621 409.149C167.055 407.724 168.993 406.923 171.015 406.92H430.528C432.563 406.92 434.515 407.729 435.954 409.168C437.393 410.607 438.202 412.559 438.202 414.594V779.329C438.202 781.364 437.393 783.316 435.954 784.755C434.515 786.195 432.563 787.003 430.528 787.003ZM171.015 407.189C169.071 407.192 167.208 407.967 165.835 409.343C164.461 410.719 163.69 412.583 163.69 414.527V779.329C163.69 781.273 164.461 783.137 165.835 784.513C167.208 785.889 169.071 786.664 171.015 786.667H430.528C432.473 786.664 434.337 785.889 435.713 784.514C437.088 783.139 437.862 781.274 437.866 779.329V414.527C437.862 412.582 437.088 410.717 435.713 409.342C434.337 407.967 432.473 407.192 430.528 407.189H171.015Z" fill="#EBEBEB"/>
<path d="M696.818 744H385.214C382.772 743.996 380.431 743.187 378.704 741.749C376.976 740.311 376.004 738.361 376 736.327V371.605C376.025 369.583 377.007 367.651 378.732 366.227C380.457 364.804 382.786 364.003 385.214 364H696.818C699.242 364.007 701.566 364.809 703.284 366.233C705.003 367.657 705.979 369.587 706 371.605V736.327C706 738.358 705.034 740.305 703.313 741.743C701.592 743.181 699.256 743.993 696.818 744ZM385.214 364.269C382.879 364.272 380.64 365.046 378.989 366.422C377.337 367.797 376.408 369.661 376.403 371.605V736.327C376.408 738.272 377.337 740.136 378.989 741.511C380.64 742.886 382.879 743.661 385.214 743.664H696.818C699.154 743.661 701.392 742.886 703.044 741.511C704.695 740.136 705.625 738.272 705.629 736.327V371.605C705.625 369.661 704.695 367.797 703.044 366.422C701.392 365.046 699.154 364.272 696.818 364.269H385.214Z" fill="#EBEBEB"/>
<path d="M266.56 567.703C274.013 567.703 281.162 564.742 286.432 559.472C291.702 554.201 294.663 547.053 294.663 539.6C294.663 532.146 291.702 524.998 286.432 519.728C281.162 514.457 274.013 511.497 266.56 511.497H263.106V567.703H266.56Z" fill="#E0E0E0"/>
<path d="M263.079 567.703C278.6 567.703 291.182 555.121 291.182 539.6C291.182 524.079 278.6 511.497 263.079 511.497C247.558 511.497 234.976 524.079 234.976 539.6C234.976 555.121 247.558 567.703 263.079 567.703Z" fill="#F5F5F5"/>
<path d="M261.789 543.121C251.808 543.121 242.236 539.156 235.179 532.099C228.122 525.041 224.157 515.47 224.157 505.489V483.031C224.157 482.093 224.529 481.194 225.192 480.531C225.855 479.868 226.754 479.496 227.691 479.496C228.629 479.496 229.528 479.868 230.191 480.531C230.854 481.194 231.226 482.093 231.226 483.031V505.502C231.233 513.604 234.454 521.371 240.181 527.101C245.908 532.83 253.674 536.054 261.775 536.065C262.257 536.035 262.74 536.104 263.193 536.268C263.647 536.432 264.063 536.687 264.414 537.018C264.766 537.348 265.046 537.747 265.238 538.19C265.429 538.633 265.528 539.11 265.528 539.593C265.528 540.075 265.429 540.553 265.238 540.996C265.046 541.439 264.766 541.838 264.414 542.168C264.063 542.499 263.647 542.754 263.193 542.918C262.74 543.081 262.257 543.151 261.775 543.121H261.789Z" fill="#E0E0E0"/>
<path d="M196.444 502.814H258.967C259.966 502.815 260.953 502.585 261.85 502.144C262.748 501.703 263.532 501.061 264.142 500.269C264.752 499.477 265.172 498.556 265.37 497.575C265.568 496.595 265.538 495.583 265.283 494.616L259.84 474.12C259.473 472.728 258.655 471.496 257.516 470.616C256.376 469.736 254.977 469.257 253.537 469.255H201.873C200.432 469.257 199.031 469.735 197.889 470.614C196.746 471.494 195.927 472.727 195.557 474.12L190.181 494.589C189.919 495.553 189.882 496.565 190.074 497.546C190.266 498.526 190.68 499.45 191.285 500.245C191.891 501.04 192.671 501.685 193.565 502.131C194.46 502.576 195.444 502.81 196.444 502.814Z" fill="#F5F5F5"/>
<path d="M663.416 567.703C670.87 567.703 678.018 564.742 683.288 559.472C688.559 554.201 691.52 547.053 691.52 539.6C691.52 532.146 688.559 524.998 683.288 519.728C678.018 514.457 670.87 511.497 663.416 511.497H659.962V567.703H663.416Z" fill="#E0E0E0"/>
<path d="M659.962 567.703C675.483 567.703 688.065 555.121 688.065 539.6C688.065 524.079 675.483 511.497 659.962 511.497C644.442 511.497 631.859 524.079 631.859 539.6C631.859 555.121 644.442 567.703 659.962 567.703Z" fill="#F5F5F5"/>
<path d="M658.672 543.121C648.691 543.121 639.12 539.156 632.062 532.099C625.005 525.041 621.04 515.47 621.04 505.489V483.031C621.04 482.093 621.412 481.194 622.075 480.531C622.738 479.868 623.637 479.496 624.575 479.496C625.512 479.496 626.411 479.868 627.074 480.531C627.737 481.194 628.109 482.093 628.109 483.031V505.502C628.117 513.604 631.337 521.371 637.064 527.101C642.791 532.83 650.557 536.054 658.659 536.065C659.14 536.035 659.623 536.104 660.077 536.268C660.531 536.432 660.946 536.687 661.298 537.018C661.649 537.348 661.929 537.747 662.121 538.19C662.312 538.633 662.411 539.11 662.411 539.593C662.411 540.075 662.312 540.553 662.121 540.996C661.929 541.439 661.649 541.838 661.298 542.168C660.946 542.499 660.531 542.754 660.077 542.918C659.623 543.081 659.14 543.151 658.659 543.121H658.672Z" fill="#E0E0E0"/>
<path d="M593.327 502.814H655.849C656.849 502.815 657.836 502.585 658.733 502.144C659.63 501.703 660.414 501.061 661.025 500.269C661.635 499.477 662.055 498.556 662.253 497.575C662.451 496.595 662.421 495.583 662.166 494.616L656.79 474.147C656.423 472.754 655.606 471.523 654.466 470.643C653.326 469.763 651.927 469.284 650.487 469.282H598.756C597.315 469.284 595.914 469.762 594.772 470.641C593.629 471.521 592.81 472.753 592.44 474.147L587.064 494.616C586.807 495.579 586.774 496.587 586.968 497.564C587.162 498.542 587.577 499.461 588.182 500.253C588.787 501.045 589.565 501.687 590.457 502.131C591.349 502.575 592.33 502.809 593.327 502.814Z" fill="#F5F5F5"/>
<path d="M292.069 757.516H312.511V678.314H292.069V757.516Z" fill="#E6E6E6"/>
<path d="M236.656 757.502H304.487L314.729 664.807H246.897L236.656 757.502Z" fill="#F0F0F0"/>
<path d="M229.304 757.502H299.38L309.622 664.807H239.559L229.304 757.502Z" fill="#F5F5F5"/>
<path d="M294.313 750.204L302.942 672.118H244.612L235.984 750.204H294.313Z" fill="white"/>
<path d="M282.271 731.268L282.688 728.136C284.852 708.54 272.621 691.082 256.735 691.082L256.372 694.267C254.208 713.849 266.439 731.308 282.338 731.308L282.271 731.268Z" fill="#F5F5F5"/>
<path d="M191.417 846.946H251.682V757.502H191.417V846.946Z" fill="#E6E6E6"/>
<path d="M197.465 846.946H191.403V829.702H203.822L197.465 846.946Z" fill="#F0F0F0"/>
<path d="M360.318 846.946H420.583V757.502H360.318V846.946Z" fill="#E6E6E6"/>
<path d="M191.404 836.368H365.6V757.516H191.404V836.368Z" fill="#F0F0F0"/>
<path d="M359.538 846.946H365.599V829.702H353.181L359.538 846.946Z" fill="#F0F0F0"/>
<path d="M196.108 794.261H360.896V762.435H196.108V794.261Z" fill="#E6E6E6"/>
<path d="M267.514 783.24H289.489C294.213 783.242 298.889 782.28 303.228 780.413C307.568 778.545 311.482 775.812 314.729 772.38H242.274C245.523 775.81 249.436 778.542 253.776 780.409C258.115 782.276 262.79 783.24 267.514 783.24Z" fill="#F0F0F0"/>
<path d="M196.108 831.221H360.896V799.395H196.108V831.221Z" fill="#E6E6E6"/>
<path d="M267.514 820.146H289.489C294.213 820.148 298.889 819.186 303.228 817.319C307.568 815.452 311.482 812.719 314.729 809.287H242.274C245.523 812.717 249.436 815.448 253.776 817.316C258.115 819.183 262.79 820.146 267.514 820.146Z" fill="#F0F0F0"/>
<path d="M354.565 753.86H356.124C356.124 750.648 356.124 742.517 356.285 723.875C356.567 690.074 357.105 688.018 357.105 688.018L353.396 703.621C351.044 720.892 354.081 738.256 354.565 753.86Z" fill="#E6E6E6"/>
<path d="M351.487 701.256C346.111 694.899 334.754 693.044 323.089 691.458C318.505 690.84 335.117 701.31 343.249 708.742C349.565 714.521 353.597 716.121 355.345 721.873C356.232 714.696 356.084 706.78 351.487 701.256Z" fill="#E6E6E6"/>
<path d="M358.57 712.653C363.946 706.296 375.303 704.455 386.969 702.869C391.552 702.251 374.873 712.72 366.809 720.153C360.492 725.932 356.46 727.531 354.713 733.284C353.826 726.107 353.92 718.137 358.57 712.653Z" fill="#E6E6E6"/>
<path d="M356.286 686.472C360.318 678.865 370.344 671.688 381.647 669C386.082 667.938 371.365 683.031 365.774 692.775C361.433 700.329 355.681 709.226 354.78 715.623C353.436 703.017 352.281 694.119 356.286 686.472Z" fill="#E6E6E6"/>
<path d="M355.802 757.502C351.044 757.502 347.106 755.123 346.824 752.059L346.031 746.844H365.586L364.78 752.059C364.511 755.123 360.64 757.502 355.802 757.502Z" fill="#F0F0F0"/>
<path d="M366.849 748.847H344.767L344.136 743.027H367.481L366.849 748.847Z" fill="#F0F0F0"/>
<path d="M339.862 637.712H555.184V441.313H339.862V637.712Z" fill="#E6E6E6"/>
<path d="M335.023 637.712H553.074V441.313H335.023V637.712Z" fill="#F5F5F5"/>
<path d="M544.365 628.922V450.116H343.706V628.922H544.365Z" fill="#FAFAFA"/>
<path d="M519.756 628.922L440.783 450.116H413.957L492.93 628.922H519.756Z" fill="white"/>
<path d="M485.323 628.922L406.349 450.116H387.883L466.856 628.922H485.323Z" fill="white"/>
<path d="M418.217 628.908V450.103H407.841V628.908H418.217Z" fill="#E6E6E6"/>
<path d="M487.191 628.908V450.103H476.815V628.908H487.191Z" fill="#E6E6E6"/>
<path d="M416.349 634.5V443.571H403.231V634.5H416.349Z" fill="#F5F5F5"/>
<path d="M485.323 634.5V443.571H472.205V634.5H485.323Z" fill="#F5F5F5"/>
<path d="M344.646 628.922V450.116H343.719V628.922H344.646Z" fill="#E6E6E6"/>
<path d="M331.368 429.996H564.632C564.931 430 565.216 430.12 565.427 430.331C565.638 430.542 565.758 430.827 565.761 431.125C565.758 431.423 565.637 431.706 565.426 431.915C565.215 432.124 564.929 432.241 564.632 432.241H331.368C331.071 432.241 330.785 432.124 330.574 431.915C330.363 431.706 330.242 431.423 330.239 431.125C330.242 430.827 330.362 430.542 330.573 430.331C330.784 430.12 331.069 430 331.368 429.996Z" fill="#E6E6E6"/>
<path d="M555.184 437.402C555.584 437.398 555.967 437.237 556.249 436.952C556.531 436.668 556.689 436.284 556.689 435.883V432.631C556.691 432.432 556.653 432.235 556.578 432.051C556.503 431.866 556.393 431.699 556.253 431.558C556.113 431.416 555.946 431.304 555.763 431.228C555.579 431.151 555.383 431.112 555.184 431.112C554.783 431.112 554.399 431.27 554.115 431.552C553.83 431.834 553.669 432.217 553.665 432.617V435.87C553.665 436.274 553.825 436.661 554.109 436.948C554.393 437.235 554.78 437.398 555.184 437.402Z" fill="#E6E6E6"/>
<path d="M348.275 437.402C348.677 437.398 349.061 437.237 349.345 436.953C349.629 436.669 349.791 436.285 349.794 435.883V432.631C349.794 432.228 349.634 431.842 349.349 431.557C349.064 431.272 348.678 431.112 348.275 431.112C347.876 431.112 347.493 431.271 347.211 431.553C346.929 431.835 346.77 432.218 346.77 432.617V435.87C346.768 436.069 346.806 436.267 346.881 436.452C346.955 436.637 347.066 436.805 347.205 436.948C347.345 437.09 347.512 437.203 347.695 437.281C347.879 437.359 348.076 437.4 348.275 437.402Z" fill="#E6E6E6"/>
<path opacity="0.6" d="M331.717 584.919H549.62V431.112H331.717V584.919Z" fill="#E0E0E0"/>
<path d="M569.35 682.4H531.772C527.778 682.4 524.541 685.637 524.541 689.63V707.022C524.541 711.015 527.778 714.252 531.772 714.252H569.35C573.343 714.252 576.581 711.015 576.581 707.022V689.63C576.581 685.637 573.343 682.4 569.35 682.4Z" fill="#FAFAFA"/>
<path d="M574.148 676.513H526.974C525.63 676.513 524.541 677.602 524.541 678.946V680.908C524.541 682.251 525.63 683.34 526.974 683.34H574.148C575.492 683.34 576.581 682.251 576.581 680.908V678.946C576.581 677.602 575.492 676.513 574.148 676.513Z" fill="#E6E6E6"/>
<path d="M525.307 749.64C525.307 749.64 525.992 772.045 552.093 772.045C578.193 772.045 578.879 749.64 578.879 749.64H525.307Z" fill="#F0F0F0"/>
<path d="M584.819 749.64C584.819 749.64 585.505 772.045 611.605 772.045C637.706 772.045 638.391 749.64 638.391 749.64H584.819Z" fill="#F0F0F0"/>
<path d="M625.462 667.979H573.852C568.36 667.979 563.907 672.431 563.907 677.924V704.32C563.907 709.813 568.36 714.266 573.852 714.266H625.462C630.955 714.266 635.408 709.813 635.408 704.32V677.924C635.408 672.431 630.955 667.979 625.462 667.979Z" fill="#F0F0F0"/>
<path d="M632.074 659.888H567.24C565.399 659.888 563.907 661.38 563.907 663.221V665.936C563.907 667.777 565.399 669.269 567.24 669.269H632.074C633.915 669.269 635.408 667.777 635.408 665.936V663.221C635.408 661.38 633.915 659.888 632.074 659.888Z" fill="#F5F5F5"/>
<path d="M505.644 846.946H512.418V735.877H505.644V846.946Z" fill="#E6E6E6"/>
<path d="M701.236 714.252H664.559V735.864H701.236V714.252Z" fill="#E6E6E6"/>
<path d="M482.191 735.877H664.545V714.266H482.191V735.877Z" fill="#F5F5F5"/>
<path d="M701.236 771.977H664.559V793.589H701.236V771.977Z" fill="#E6E6E6"/>
<path d="M482.191 793.589H664.545V771.977H482.191V793.589Z" fill="#F5F5F5"/>
<path d="M687.998 846.946H694.772V735.877H687.998V846.946Z" fill="#E6E6E6"/>
<path d="M657.785 846.946H664.559V735.877H657.785V846.946Z" fill="#F5F5F5"/>
<path d="M482.191 846.946H488.965V735.877H482.191V846.946Z" fill="#F5F5F5"/>
<path d="M448 907.641C591.919 907.641 708.588 900.829 708.588 892.427C708.588 884.024 591.919 877.213 448 877.213C304.081 877.213 187.412 884.024 187.412 892.427C187.412 900.829 304.081 907.641 448 907.641Z" fill="#F5F5F5"/>
<path d="M461.991 824.232H290.537C287.78 824.193 285.139 823.113 283.145 821.208C281.151 819.304 279.951 816.716 279.785 813.964L264.41 516.201C264.324 514.876 264.514 513.548 264.965 512.3C265.417 511.053 266.122 509.911 267.036 508.949C267.949 507.986 269.052 507.222 270.274 506.706C271.497 506.189 272.813 505.93 274.14 505.946H445.594C448.35 505.982 450.99 507.059 452.985 508.961C454.979 510.863 456.18 513.45 456.346 516.201L471.695 813.964C471.78 815.287 471.591 816.613 471.141 817.86C470.691 819.106 469.989 820.247 469.078 821.21C468.168 822.174 467.069 822.939 465.849 823.459C464.63 823.979 463.316 824.242 461.991 824.232Z" fill="#BDBDBD"/>
<path opacity="0.8" d="M461.991 824.232H290.537C287.78 824.193 285.139 823.113 283.145 821.208C281.151 819.304 279.951 816.716 279.785 813.964L264.41 516.201C264.324 514.876 264.514 513.548 264.965 512.3C265.417 511.053 266.122 509.911 267.036 508.949C267.949 507.986 269.052 507.222 270.274 506.706C271.497 506.189 272.813 505.93 274.14 505.946H445.594C448.35 505.982 450.99 507.059 452.985 508.961C454.979 510.863 456.18 513.45 456.346 516.201L471.695 813.964C471.78 815.287 471.591 816.613 471.141 817.86C470.691 819.106 469.989 820.247 469.078 821.21C468.168 822.174 467.069 822.939 465.849 823.459C464.63 823.979 463.316 824.242 461.991 824.232Z" fill="white"/>
<path d="M428.673 496.242H409.709V497.586H428.673V496.242Z" fill="#BDBDBD"/>
<path d="M403.137 496.242H396.189V497.586H403.137V496.242Z" fill="#BDBDBD"/>
<path d="M469.37 805.335H305.402C302.761 805.31 300.229 804.285 298.313 802.467C296.398 800.649 295.243 798.173 295.08 795.538L280.403 510.744C280.322 509.476 280.503 508.206 280.936 507.012C281.368 505.817 282.043 504.725 282.917 503.804C283.792 502.883 284.847 502.152 286.017 501.658C287.188 501.164 288.447 500.917 289.717 500.933H453.685C456.326 500.962 458.857 501.99 460.769 503.811C462.682 505.631 463.834 508.108 463.994 510.744L478.67 795.538C478.752 796.803 478.571 798.072 478.139 799.265C477.707 800.458 477.033 801.548 476.16 802.468C475.287 803.388 474.233 804.117 473.064 804.611C471.896 805.104 470.638 805.351 469.37 805.335Z" fill="#BDBDBD"/>
<path d="M469.37 798.79H305.402C304.44 798.757 303.524 798.372 302.828 797.708C302.132 797.044 301.704 796.147 301.625 795.188L286.935 510.408C286.902 510.029 286.949 509.648 287.074 509.289C287.2 508.929 287.399 508.601 287.661 508.325C287.923 508.049 288.241 507.833 288.593 507.689C288.945 507.545 289.324 507.478 289.704 507.492H453.672C454.631 507.528 455.544 507.914 456.237 508.578C456.931 509.242 457.357 510.137 457.435 511.093L472.192 795.874C472.224 796.251 472.177 796.631 472.052 796.989C471.927 797.346 471.728 797.674 471.468 797.949C471.208 798.225 470.892 798.442 470.542 798.587C470.192 798.732 469.816 798.801 469.437 798.79H469.37ZM289.704 507.828C289.37 507.817 289.037 507.876 288.727 508.001C288.417 508.126 288.136 508.314 287.903 508.553C287.678 508.802 287.507 509.093 287.398 509.409C287.29 509.726 287.246 510.061 287.271 510.395L301.948 795.175C302.022 796.047 302.413 796.862 303.047 797.466C303.681 798.07 304.513 798.421 305.388 798.454H469.356C469.689 798.467 470.02 798.409 470.328 798.284C470.637 798.159 470.915 797.97 471.144 797.728C471.374 797.484 471.549 797.193 471.658 796.876C471.767 796.558 471.807 796.221 471.775 795.887L457.112 511.107C457.041 510.236 456.652 509.421 456.021 508.817C455.39 508.213 454.559 507.861 453.685 507.828H289.704Z" fill="white"/>
<path opacity="0.3" d="M412.017 611.283C430.666 592.145 429.452 560.715 409.304 541.081C389.156 521.447 357.705 521.045 339.056 540.183C320.406 559.32 321.62 590.751 341.768 610.384C361.916 630.018 393.367 630.421 412.017 611.283Z" fill="white"/>
<path d="M415.744 575.74C416.12 582.345 414.792 588.935 411.887 594.878C408.742 601.253 403.86 606.61 397.804 610.331C391.747 614.053 384.763 615.987 377.655 615.912C370.289 615.846 363.065 613.874 356.688 610.188C350.31 606.502 344.995 601.228 341.259 594.878C337.778 589.072 335.776 582.501 335.426 575.74C335.095 570.555 335.837 565.358 337.607 560.473C339.377 555.588 342.135 551.121 345.711 547.352C349.286 543.582 353.601 540.591 358.385 538.566C363.169 536.54 368.32 535.524 373.515 535.581C384.328 535.694 394.696 539.899 402.532 547.351C410.367 554.803 415.088 564.947 415.744 575.74Z" fill="white"/>
<path d="M411.846 594.878C408.702 601.253 403.82 606.61 397.764 610.331C391.707 614.053 384.723 615.987 377.615 615.912C370.249 615.846 363.025 613.874 356.647 610.188C350.269 606.502 344.954 601.228 341.219 594.878C351.433 587.825 363.563 584.072 375.975 584.126C388.719 584.174 401.177 587.909 411.846 594.878Z" fill="#BDBDBD"/>
<path d="M387.987 574.806C394.706 567.911 394.266 556.585 387.004 549.509C379.742 542.432 368.409 542.285 361.69 549.18C354.971 556.075 355.411 567.401 362.672 574.477C369.934 581.554 381.268 581.701 387.987 574.806Z" fill="#BDBDBD"/>
<path d="M445.863 694.536H317.471C316.352 694.524 315.28 694.09 314.469 693.319C313.659 692.548 313.171 691.499 313.103 690.383L312.135 671.567C312.102 671.032 312.179 670.495 312.363 669.992C312.546 669.488 312.831 669.027 313.201 668.638C313.571 668.25 314.017 667.942 314.511 667.733C315.005 667.525 315.537 667.421 316.073 667.428H444.465C445.581 667.439 446.652 667.872 447.462 668.64C448.272 669.407 448.762 670.453 448.833 671.567L449.801 690.383C449.836 690.919 449.76 691.457 449.578 691.963C449.395 692.468 449.11 692.931 448.74 693.321C448.37 693.711 447.924 694.02 447.429 694.229C446.933 694.438 446.4 694.543 445.863 694.536Z" fill="white"/>
<path opacity="0.3" d="M406.551 657.038H352.925C351.803 657.03 350.725 656.595 349.911 655.821C349.098 655.047 348.609 653.993 348.544 652.872L348.342 648.84C348.307 648.304 348.383 647.766 348.566 647.26C348.748 646.755 349.033 646.293 349.403 645.903C349.773 645.513 350.22 645.203 350.715 644.994C351.21 644.785 351.743 644.68 352.28 644.687H405.892C407.011 644.699 408.083 645.133 408.894 645.904C409.704 646.675 410.193 647.724 410.26 648.84L410.475 652.872C410.509 653.407 410.432 653.944 410.249 654.448C410.067 654.953 409.783 655.414 409.415 655.805C409.047 656.195 408.604 656.506 408.111 656.718C407.618 656.931 407.087 657.039 406.551 657.038Z" fill="black"/>
<path opacity="0.3" d="M426.496 785.001H346.165C344.263 784.977 342.44 784.236 341.062 782.925C339.683 781.613 338.851 779.83 338.733 777.931L338.263 768.658C338.215 767.746 338.354 766.835 338.67 765.979C338.987 765.122 339.474 764.34 340.103 763.678C340.732 763.017 341.489 762.49 342.328 762.131C343.166 761.772 344.07 761.587 344.983 761.588H425.287C427.189 761.612 429.012 762.353 430.39 763.664C431.768 764.975 432.6 766.759 432.719 768.658L433.189 777.931C433.237 778.84 433.099 779.75 432.784 780.604C432.469 781.458 431.984 782.24 431.358 782.901C430.732 783.562 429.979 784.089 429.143 784.45C428.307 784.811 427.407 784.998 426.496 785.001Z" fill="black"/>
<path d="M448.215 740.044H319.809C318.692 740.029 317.621 739.593 316.811 738.823C316.001 738.053 315.512 737.006 315.441 735.891L314.473 717.075C314.44 716.539 314.518 716.002 314.701 715.497C314.884 714.993 315.169 714.531 315.539 714.142C315.908 713.752 316.354 713.443 316.848 713.233C317.342 713.023 317.874 712.917 318.411 712.922H446.804C447.922 712.933 448.994 713.368 449.805 714.139C450.615 714.909 451.104 715.959 451.172 717.075L452.153 735.891C452.184 736.426 452.105 736.962 451.921 737.466C451.737 737.97 451.452 738.431 451.083 738.82C450.714 739.209 450.269 739.518 449.775 739.729C449.282 739.939 448.751 740.047 448.215 740.044Z" fill="white"/>
<path d="M333.76 680.975C333.797 681.569 333.711 682.164 333.508 682.723C333.304 683.283 332.988 683.794 332.578 684.225C332.168 684.657 331.673 684.999 331.125 685.231C330.577 685.462 329.987 685.578 329.392 685.572C328.156 685.557 326.971 685.075 326.076 684.222C325.181 683.369 324.642 682.209 324.567 680.975C324.528 680.382 324.612 679.787 324.814 679.228C325.016 678.669 325.331 678.157 325.74 677.725C326.149 677.294 326.642 676.951 327.19 676.72C327.737 676.488 328.327 676.372 328.921 676.379C330.159 676.393 331.345 676.875 332.243 677.727C333.14 678.58 333.682 679.74 333.76 680.975Z" fill="#263238"/>
<path d="M347.912 680.975C347.951 681.568 347.867 682.163 347.665 682.722C347.464 683.282 347.148 683.793 346.739 684.225C346.33 684.656 345.837 684.999 345.289 685.23C344.742 685.462 344.152 685.578 343.558 685.572C342.321 685.56 341.134 685.079 340.238 684.225C339.343 683.372 338.804 682.21 338.733 680.975C338.694 680.382 338.778 679.787 338.98 679.228C339.182 678.669 339.497 678.157 339.906 677.725C340.315 677.294 340.808 676.951 341.356 676.72C341.903 676.488 342.493 676.372 343.087 676.379C344.325 676.39 345.511 676.871 346.407 677.725C347.303 678.578 347.841 679.74 347.912 680.975Z" fill="#263238"/>
<path d="M361.984 680.975C362.023 681.568 361.939 682.163 361.737 682.722C361.535 683.282 361.22 683.793 360.811 684.225C360.402 684.656 359.908 684.999 359.361 685.23C358.813 685.462 358.224 685.578 357.629 685.572C356.392 685.557 355.206 685.075 354.308 684.223C353.411 683.37 352.869 682.21 352.791 680.975C352.754 680.381 352.84 679.786 353.043 679.227C353.247 678.667 353.563 678.156 353.973 677.725C354.383 677.294 354.878 676.951 355.426 676.72C355.974 676.488 356.564 676.372 357.159 676.379C358.395 676.393 359.58 676.876 360.475 677.728C361.37 678.581 361.909 679.741 361.984 680.975Z" fill="#263238"/>
<path d="M376.163 680.975C376.2 681.568 376.115 682.162 375.912 682.72C375.709 683.278 375.394 683.789 374.986 684.22C374.577 684.651 374.084 684.994 373.538 685.226C372.991 685.459 372.403 685.576 371.809 685.571C370.571 685.557 369.385 685.075 368.487 684.223C367.59 683.37 367.048 682.21 366.97 680.975C366.933 680.382 367.019 679.788 367.221 679.23C367.424 678.672 367.739 678.161 368.148 677.73C368.556 677.299 369.049 676.956 369.596 676.724C370.142 676.491 370.731 676.374 371.325 676.379C372.562 676.393 373.749 676.875 374.646 677.727C375.543 678.58 376.085 679.74 376.163 680.975Z" fill="#263238"/>
<path d="M336.139 726.456C336.178 727.049 336.094 727.644 335.892 728.203C335.69 728.763 335.375 729.274 334.966 729.706C334.557 730.137 334.063 730.48 333.516 730.711C332.968 730.943 332.379 731.059 331.784 731.053C330.547 731.038 329.36 730.556 328.463 729.704C327.566 728.851 327.024 727.691 326.946 726.456C326.909 725.862 326.995 725.267 327.198 724.708C327.402 724.148 327.718 723.637 328.128 723.206C328.538 722.774 329.033 722.432 329.581 722.201C330.129 721.969 330.719 721.853 331.314 721.86C332.55 721.874 333.735 722.356 334.63 723.209C335.525 724.062 336.064 725.222 336.139 726.456Z" fill="#263238"/>
<path d="M350.264 726.456C350.301 727.049 350.216 727.643 350.013 728.201C349.81 728.76 349.495 729.27 349.087 729.701C348.678 730.132 348.185 730.475 347.639 730.707C347.092 730.94 346.504 731.057 345.91 731.053C344.672 731.038 343.486 730.556 342.588 729.704C341.691 728.851 341.149 727.691 341.071 726.456C341.032 725.863 341.116 725.268 341.318 724.709C341.52 724.149 341.835 723.638 342.244 723.206C342.653 722.775 343.147 722.432 343.694 722.201C344.242 721.969 344.831 721.853 345.426 721.86C346.663 721.874 347.85 722.356 348.747 723.208C349.644 724.061 350.186 725.221 350.264 726.456Z" fill="#263238"/>
<path d="M364.39 726.456C364.427 727.05 364.341 727.645 364.137 728.204C363.934 728.764 363.617 729.275 363.208 729.706C362.798 730.138 362.303 730.48 361.755 730.711C361.207 730.943 360.617 731.059 360.022 731.053C358.785 731.041 357.598 730.56 356.702 729.706C355.806 728.853 355.268 727.691 355.197 726.456C355.158 725.863 355.242 725.268 355.444 724.709C355.646 724.149 355.961 723.638 356.37 723.206C356.779 722.775 357.272 722.432 357.82 722.201C358.367 721.969 358.957 721.853 359.551 721.86C360.789 721.874 361.975 722.356 362.873 723.208C363.77 724.061 364.312 725.221 364.39 726.456Z" fill="#263238"/>
<path d="M378.502 726.456C378.541 727.049 378.456 727.644 378.255 728.203C378.053 728.763 377.737 729.274 377.329 729.706C376.92 730.137 376.426 730.48 375.879 730.711C375.331 730.943 374.742 731.059 374.147 731.053C372.909 731.038 371.723 730.556 370.826 729.704C369.929 728.851 369.387 727.691 369.309 726.456C369.272 725.862 369.358 725.267 369.561 724.708C369.764 724.148 370.081 723.637 370.491 723.206C370.901 722.774 371.395 722.432 371.943 722.201C372.492 721.969 373.082 721.853 373.677 721.86C374.914 721.871 376.1 722.352 376.996 723.206C377.892 724.059 378.43 725.221 378.502 726.456Z" fill="#263238"/>
<path d="M392.627 726.456C392.666 727.049 392.582 727.644 392.38 728.203C392.178 728.763 391.863 729.274 391.454 729.706C391.045 730.137 390.551 730.48 390.004 730.711C389.457 730.943 388.867 731.059 388.273 731.053C387.035 731.038 385.849 730.556 384.951 729.704C384.054 728.851 383.512 727.691 383.434 726.456C383.397 725.863 383.483 725.269 383.685 724.711C383.888 724.153 384.203 723.642 384.612 723.211C385.02 722.78 385.513 722.437 386.06 722.205C386.606 721.972 387.195 721.855 387.789 721.86C389.026 721.874 390.213 722.356 391.11 723.208C392.007 724.061 392.549 725.221 392.627 726.456Z" fill="#263238"/>
<path d="M406.753 726.456C406.79 727.05 406.704 727.645 406.5 728.204C406.297 728.764 405.98 729.275 405.57 729.706C405.16 730.138 404.666 730.48 404.118 730.711C403.57 730.943 402.98 731.059 402.385 731.053C401.148 731.038 399.964 730.556 399.068 729.703C398.173 728.85 397.634 727.69 397.56 726.456C397.521 725.863 397.605 725.268 397.807 724.709C398.008 724.149 398.324 723.638 398.733 723.206C399.141 722.775 399.635 722.432 400.183 722.201C400.73 721.969 401.32 721.853 401.914 721.86C403.152 721.874 404.338 722.356 405.235 723.208C406.133 724.061 406.675 725.221 406.753 726.456Z" fill="#263238"/>
<path d="M559.552 570.377C559.888 570.888 560.063 571.157 560.278 571.52L560.883 572.514C561.272 573.186 561.622 573.858 561.958 574.517C562.63 575.861 563.302 577.205 563.839 578.549C564.966 581.218 565.936 583.951 566.743 586.734C568.37 592.231 569.441 597.877 569.941 603.588L570.035 604.649C570.047 604.864 570.047 605.079 570.035 605.294V606.007C570.058 606.941 570.004 607.876 569.874 608.802C569.616 610.519 569.165 612.2 568.53 613.815C567.349 616.7 565.785 619.412 563.88 621.879C560.326 626.431 556.108 630.422 551.367 633.72L547.658 629.379C551.033 625.567 554.022 621.429 556.582 617.028C557.734 615.031 558.636 612.9 559.27 610.684C559.527 609.745 559.675 608.78 559.713 607.808C559.755 607.392 559.755 606.973 559.713 606.558V606.276C559.727 606.15 559.727 606.024 559.713 605.899L559.552 604.958C558.688 599.949 557.466 595.009 555.896 590.174C555.117 587.769 554.163 585.444 553.208 583.172C552.738 582.03 552.2 580.914 551.663 579.839L550.83 578.253L550.413 577.514L550.063 576.923L559.552 570.377Z" fill="#803E3C"/>
<path d="M547.053 633.747L551.918 644.029L555.776 635.333C555.776 635.333 552.349 627.806 547.712 628.505L547.053 633.747Z" fill="#7F3E3B"/>
<path d="M555.399 644.539L559.27 638.195L555.776 635.333L551.918 644.028L555.399 644.539Z" fill="#7F3E3B"/>
<path d="M533.519 881.648C534.525 881.622 535.526 881.487 536.503 881.244C536.552 881.229 536.597 881.202 536.632 881.164C536.667 881.126 536.692 881.08 536.704 881.029C536.712 880.978 536.705 880.925 536.684 880.877C536.662 880.829 536.627 880.789 536.583 880.761C536.193 880.505 532.78 878.301 531.463 878.892C531.317 878.961 531.191 879.066 531.099 879.198C531.007 879.33 530.952 879.485 530.938 879.645C530.898 879.888 530.917 880.138 530.994 880.372C531.071 880.606 531.204 880.818 531.382 880.989C531.991 881.46 532.75 881.694 533.519 881.648ZM535.736 880.855C533.788 881.258 532.309 881.191 531.704 880.667C531.581 880.544 531.49 880.392 531.441 880.226C531.392 880.059 531.385 879.882 531.422 879.712C531.422 879.484 531.557 879.417 531.651 879.376C532.376 879.054 534.352 880.008 535.736 880.855Z" fill="#BDBDBD"/>
<path d="M536.435 881.244H536.57C536.61 881.218 536.644 881.182 536.667 881.14C536.691 881.098 536.703 881.051 536.704 881.003C536.704 880.868 536.704 877.629 535.468 876.54C535.316 876.404 535.137 876.302 534.942 876.242C534.747 876.182 534.541 876.164 534.339 876.191C534.127 876.193 533.922 876.267 533.758 876.402C533.594 876.536 533.481 876.723 533.438 876.93C533.183 878.207 535.226 880.626 536.301 881.244H536.435ZM534.514 876.688C534.622 876.685 534.731 876.704 534.832 876.743C534.934 876.782 535.026 876.841 535.105 876.917C535.814 877.962 536.18 879.202 536.153 880.465C535.078 879.605 533.801 877.777 533.963 877.011C533.963 876.89 534.057 876.729 534.393 876.688H534.514Z" fill="#BDBDBD"/>
<path d="M520.832 876.164C520.863 876.125 520.884 876.078 520.891 876.028C520.898 875.978 520.892 875.927 520.873 875.88C520.853 875.833 520.822 875.793 520.782 875.762C520.741 875.732 520.694 875.713 520.644 875.707C520.093 875.707 515.268 875.479 514.166 876.661V876.742C514.074 876.858 514.015 876.996 513.994 877.143C513.973 877.289 513.99 877.438 514.045 877.575C514.116 877.806 514.243 878.016 514.414 878.187C514.585 878.358 514.795 878.485 515.026 878.557C516.585 879.04 519.34 877.28 520.845 876.191L520.832 876.164ZM514.569 877.011C515.174 876.366 517.835 876.191 519.824 876.218C517.741 877.643 516.007 878.315 515.133 878.046C514.981 878 514.842 877.917 514.73 877.804C514.617 877.691 514.534 877.553 514.488 877.401C514.461 877.349 514.447 877.291 514.447 877.233C514.447 877.174 514.461 877.117 514.488 877.065L514.569 877.011Z" fill="#BDBDBD"/>
<path d="M520.831 876.164C520.852 876.122 520.862 876.076 520.862 876.03C520.862 875.983 520.852 875.937 520.831 875.895C520.764 875.788 519.259 873.207 517.485 872.67C517.23 872.595 516.963 872.573 516.699 872.606C516.436 872.638 516.182 872.724 515.953 872.858C515.308 873.234 515.267 873.678 515.348 873.96C515.697 875.21 519.125 876.312 520.603 876.299C520.649 876.298 520.695 876.285 520.735 876.261C520.775 876.238 520.808 876.204 520.831 876.164ZM516.007 873.476C516.082 873.402 516.168 873.338 516.262 873.288C516.428 873.182 516.615 873.114 516.81 873.089C517.005 873.063 517.203 873.081 517.391 873.14C518.56 873.449 519.649 874.955 520.146 875.694C518.547 875.519 516.114 874.538 515.912 873.785C515.895 873.728 515.895 873.667 515.912 873.61C515.929 873.553 515.961 873.502 516.007 873.463V873.476Z" fill="#BDBDBD"/>
<path d="M535.629 531.012C534.285 537.732 531.382 552.26 536.046 556.722C536.046 556.722 534.218 563.442 521.813 563.442C508.158 563.442 515.294 556.722 515.294 556.722C522.74 554.948 522.552 549.411 521.248 544.223L535.629 531.012Z" fill="#7F3E3B"/>
<path d="M512.888 515.26C512.964 515.272 513.041 515.272 513.117 515.26C513.181 515.228 513.238 515.185 513.284 515.131C513.331 515.077 513.367 515.015 513.389 514.948C513.412 514.88 513.421 514.809 513.416 514.738C513.41 514.667 513.391 514.598 513.359 514.534C512.997 513.767 512.457 513.099 511.784 512.584C511.11 512.07 510.323 511.724 509.488 511.577C509.348 511.566 509.209 511.608 509.099 511.695C508.989 511.783 508.917 511.909 508.897 512.048C508.881 512.188 508.922 512.329 509.01 512.44C509.098 512.551 509.227 512.622 509.367 512.639C510.026 512.766 510.645 513.047 511.174 513.461C511.702 513.875 512.124 514.408 512.405 515.018C512.457 515.097 512.529 515.162 512.614 515.204C512.699 515.247 512.793 515.266 512.888 515.26Z" fill="#263238"/>
<path d="M508.816 521.16C507.758 523.122 506.438 524.931 504.892 526.536C505.31 526.919 505.807 527.206 506.348 527.378C506.889 527.55 507.46 527.602 508.023 527.531L508.816 521.16Z" fill="#630F0F"/>
<path d="M509.824 519.641C509.717 520.542 509.139 521.214 508.561 521.147C507.983 521.079 507.58 520.286 507.687 519.386C507.795 518.485 508.373 517.813 509.031 517.881C509.69 517.948 509.918 518.741 509.824 519.641Z" fill="#263238"/>
<path d="M509.206 517.961L507.136 517.128C507.136 517.128 508.01 518.902 509.206 517.961Z" fill="#263238"/>
<path d="M532.699 873.611L521.732 876.164L515.066 850.951L526.033 848.397L532.699 873.611Z" fill="#7F3E3B"/>
<path d="M549.526 880.976H538.277L539.15 854.916H550.413L549.526 880.976Z" fill="#7F3E3B"/>
<path d="M537.376 879.672H550.023C550.243 879.67 550.455 879.748 550.621 879.892C550.787 880.035 550.894 880.234 550.924 880.451L552.362 890.451C552.39 890.704 552.365 890.96 552.287 891.202C552.21 891.444 552.081 891.668 551.911 891.857C551.741 892.046 551.533 892.197 551.3 892.3C551.067 892.403 550.815 892.455 550.561 892.453C546.153 892.386 544.029 892.117 538.465 892.117C535.038 892.117 530.038 892.48 525.321 892.48C520.603 892.48 520.334 887.803 522.31 887.387C531.127 885.478 532.524 882.871 535.495 880.371C536.019 879.923 536.686 879.675 537.376 879.672Z" fill="#263238"/>
<path d="M520.764 874.484L532.256 869.202C532.451 869.109 532.673 869.091 532.881 869.15C533.089 869.209 533.268 869.343 533.384 869.525L538.881 878.019C539.01 878.237 539.091 878.481 539.12 878.732C539.148 878.984 539.124 879.239 539.048 879.481C538.972 879.723 538.846 879.946 538.678 880.137C538.511 880.327 538.305 880.48 538.075 880.586C534.043 882.36 532 883.019 526.947 885.344C523.842 886.768 517.539 890.048 513.265 892.064C508.991 894.08 506.787 889.9 508.4 888.69C515.617 883.314 517.687 879.457 519.34 875.949C519.619 875.303 520.126 874.782 520.764 874.484Z" fill="#263238"/>
<path opacity="0.2" d="M515.066 850.951L518.641 864.471L529.474 861.394L526.046 848.397L515.066 850.951Z" fill="black"/>
<path opacity="0.2" d="M550.413 854.916H539.15L538.707 868.356H549.969L550.413 854.916Z" fill="black"/>
<path d="M555.52 559.276C560.197 560.311 565.197 577.124 565.197 577.124L551.972 591.196C551.972 591.196 540.992 575.39 543.236 569.584C545.507 563.523 549.943 558.066 555.52 559.276Z" fill="#263238"/>
<path opacity="0.4" d="M548.048 569.988C545.682 567.824 544.083 568.469 542.994 570.189C541.919 575.189 548.289 585.659 550.857 589.623C552.039 584.893 553.397 574.92 548.048 569.988Z" fill="black"/>
<path d="M496.263 559.612C496.263 559.612 490.887 561.493 501.639 627.551H547.335C546.569 608.95 546.542 597.472 555.399 559.276C548.996 557.955 542.506 557.101 535.979 556.722C529.07 556.224 522.135 556.224 515.227 556.722C506.37 557.542 496.263 559.612 496.263 559.612Z" fill="#263238"/>
<path opacity="0.4" d="M495.847 584.96C496.142 588.172 496.532 591.787 497.043 595.873C500.793 592.5 503.857 582.903 502.728 577.312C500.049 579.487 497.727 582.067 495.847 584.96Z" fill="black"/>
<path d="M500.739 574.92C498.273 581.126 495.496 587.204 492.419 593.131C489.378 599.272 485.779 605.121 481.667 610.603L480.807 611.665L480.377 612.189C480.229 612.364 480.108 612.525 479.88 612.767C479.071 613.649 478.17 614.442 477.192 615.132C475.463 616.329 473.571 617.271 471.574 617.928C468.091 619.04 464.475 619.682 460.822 619.836C453.98 620.108 447.132 619.499 440.447 618.022L441.186 612.377C444.277 612.377 447.516 612.377 450.594 612.122C453.685 611.97 456.764 611.629 459.814 611.1C462.646 610.659 465.416 609.883 468.066 608.789C469.136 608.332 470.136 607.725 471.036 606.988C471.38 606.7 471.691 606.376 471.964 606.02C471.964 606.02 472.125 605.805 472.232 605.657L472.542 605.214L473.173 604.327C476.546 599.117 479.55 593.679 482.165 588.051C484.853 582.339 487.541 576.412 490 570.579L500.739 574.92Z" fill="#803E3C"/>
<path d="M496.263 559.612C490.659 560.956 483.777 576.331 483.777 576.331L495.39 593.4C495.39 593.4 510.859 573.925 509.018 567.985C507.136 561.789 503.104 557.945 496.263 559.612Z" fill="#263238"/>
<path d="M444.412 613.237L434.722 608.762L433.754 618.398C433.754 618.398 441.818 620.777 445.85 618.398L444.412 613.237Z" fill="#7F3E3B"/>
<path d="M428.929 607.794L428.001 615.132L433.754 618.398L434.721 608.762L428.929 607.794Z" fill="#7F3E3B"/>
<path d="M540.494 520.3C538.438 531.28 537.806 535.984 531.517 540.971C522.109 548.47 509.005 543.551 507.741 532.181C506.585 521.94 510.134 505.704 521.517 502.613C524.025 501.921 526.668 501.883 529.194 502.503C531.721 503.122 534.046 504.379 535.949 506.152C537.852 507.926 539.269 510.157 540.065 512.634C540.86 515.111 541.008 517.75 540.494 520.3Z" fill="#7F3E3B"/>
<path d="M516.37 522.612C515.738 528.216 515.496 542.772 527.807 543.228C542.873 543.78 547.389 530.904 546.045 525.756C553.894 519.372 555.023 508.392 546.206 499.992C537.39 491.592 517.982 496.283 512.606 504.468C505.792 514.615 516.37 522.612 516.37 522.612Z" fill="#263238"/>
<path d="M531.463 503.258C530.737 497.344 531.301 493.272 536.839 493.272C542.376 493.272 549.929 495.275 552.698 500.933C555.466 506.591 555.695 515.448 547.967 514.548C540.239 513.647 532.336 510.327 531.463 503.258Z" fill="#BDBDBD"/>
<path d="M540.037 501.833C538.693 494.791 544.996 474.953 560.305 473.609C567.401 473.004 570.68 480.638 567.025 481.902C573.745 481.821 578.045 490.705 571.782 492.036C576.728 495.207 575.505 501.712 568.449 504.911C563.194 507.33 541.851 511.591 540.037 501.833Z" fill="#263238"/>
<path d="M556.394 509.4C551.462 509.4 546.314 508.674 543.115 506.537C542.221 505.998 541.468 505.254 540.919 504.365C540.369 503.477 540.04 502.471 539.957 501.43C539.953 501.342 539.983 501.255 540.04 501.188C540.097 501.12 540.178 501.077 540.266 501.067C540.31 501.062 540.356 501.065 540.399 501.078C540.442 501.091 540.482 501.113 540.516 501.142C540.55 501.171 540.578 501.207 540.597 501.247C540.617 501.287 540.627 501.331 540.629 501.376C540.71 502.316 541.011 503.223 541.509 504.024C542.006 504.825 542.685 505.497 543.492 505.986C549.58 510.018 563.652 508.674 568.033 507.33C571.823 506.094 574.39 503.688 574.901 500.919C575.06 499.903 574.935 498.863 574.538 497.914C574.142 496.965 573.491 496.145 572.656 495.543C572.624 495.513 572.599 495.477 572.581 495.436C572.564 495.396 572.555 495.352 572.555 495.308C572.555 495.264 572.564 495.22 572.581 495.18C572.599 495.14 572.624 495.103 572.656 495.073C572.719 495.011 572.804 494.977 572.892 494.977C572.98 494.977 573.064 495.011 573.127 495.073C574.065 495.757 574.794 496.689 575.233 497.765C575.672 498.84 575.804 500.016 575.613 501.161C575.062 504.185 572.334 506.766 568.302 508.083C564.411 509.064 560.405 509.507 556.394 509.4Z" fill="#263238"/>
<path d="M512.942 521.16C511.691 522.916 511.175 525.091 511.504 527.221C511.948 530.044 514.69 530.232 516.679 528.431C518.668 526.63 520.402 523.378 518.937 521.039C518.611 520.534 518.162 520.12 517.631 519.838C517.101 519.556 516.507 519.414 515.906 519.426C515.305 519.438 514.717 519.604 514.198 519.907C513.68 520.211 513.247 520.642 512.942 521.16Z" fill="#7F3E3B"/>
<path d="M513.708 627.551C513.708 627.551 520.24 704.818 527.028 748.363C532.498 783.536 536.825 865.748 536.825 865.748H552.174C552.174 865.748 557.63 785.995 554.862 751.212C547.833 663.18 563.517 656.003 547.376 627.564L513.708 627.551Z" fill="#BDBDBD"/>
<path opacity="0.4" d="M533.035 656.756C526.952 663.14 522.043 670.547 518.533 678.637C520.321 696.001 522.444 715.274 524.702 732.155C533.967 708.169 536.839 682.186 533.035 656.756Z" fill="black"/>
<path d="M502.97 627.067C502.97 627.067 488.791 711.457 486.56 749.492C492.124 784.665 514.891 859.015 514.891 859.015L528.855 853.948C528.855 853.948 521.127 772.878 512.727 750.688C531.637 687.023 545.534 670.922 541.489 627.551C531.799 627.551 502.97 627.067Z" fill="#BDBDBD"/>
<path d="M513.023 862.724L531.893 857.604L530.818 850.077L510.617 855.547L513.023 862.724Z" fill="#263238"/>
<path d="M534.715 866.057H554.27L555.292 859.203L534.607 858.504L534.715 866.057Z" fill="#263238"/>
<path d="M548.047 624.863L550.104 628.962C550.265 629.285 549.889 629.607 549.364 629.607H501.41C501.007 629.607 500.658 629.406 500.631 629.137L500.214 625.105C500.214 624.823 500.55 624.581 500.994 624.581H547.295C547.434 624.562 547.575 624.578 547.707 624.627C547.838 624.676 547.955 624.757 548.047 624.863Z" fill="#BDBDBD"/>
<path opacity="0.5" d="M548.047 624.863L550.104 628.962C550.265 629.285 549.889 629.607 549.364 629.607H501.41C501.007 629.607 500.658 629.406 500.631 629.137L500.214 625.105C500.214 624.823 500.55 624.581 500.994 624.581H547.295C547.434 624.562 547.575 624.578 547.707 624.627C547.838 624.676 547.955 624.757 548.047 624.863Z" fill="black"/>
<path d="M541.825 630.024H543.061C543.317 630.024 543.505 629.89 543.491 629.742L542.9 624.366C542.9 624.204 542.671 624.083 542.429 624.083H541.18C540.938 624.083 540.749 624.204 540.763 624.366L541.341 629.742C541.368 629.916 541.583 630.024 541.825 630.024Z" fill="#BDBDBD"/>
<path d="M525.186 590.887C525.038 590.884 524.894 590.835 524.776 590.746C524.657 590.656 524.57 590.531 524.528 590.389C520.146 574.181 511.088 560.821 506.693 558.805C506.351 558.596 505.941 558.528 505.55 558.617C505.469 558.66 505.38 558.686 505.289 558.693C505.197 558.7 505.105 558.688 505.018 558.658C504.932 558.628 504.852 558.581 504.784 558.519C504.716 558.457 504.662 558.382 504.624 558.299C504.587 558.215 504.566 558.125 504.565 558.033C504.564 557.941 504.581 557.85 504.616 557.765C504.651 557.681 504.703 557.604 504.769 557.54C504.835 557.476 504.913 557.427 504.999 557.394C505.367 557.259 505.759 557.206 506.149 557.239C506.539 557.271 506.917 557.389 507.257 557.582C511.907 559.787 521.1 572.958 525.697 589.529C528.99 589.529 534.07 589.086 535.306 588.978C536.839 587.15 548.101 573.065 543.895 557.65C543.87 557.565 543.863 557.476 543.874 557.389C543.884 557.301 543.912 557.217 543.956 557.14C544 557.064 544.059 556.997 544.129 556.944C544.199 556.89 544.28 556.852 544.365 556.83C544.536 556.784 544.718 556.808 544.872 556.896C545.025 556.985 545.138 557.13 545.185 557.3C549.875 574.45 536.274 589.919 536.126 590.067C536.074 590.132 536.009 590.186 535.935 590.225C535.861 590.265 535.78 590.288 535.696 590.295C535.629 590.295 528.922 590.887 525.186 590.887Z" fill="#BDBDBD"/>
<path d="M547.456 600.375C540.131 586.653 537.134 585.685 535.83 581.277C536.818 578.812 538.228 576.538 539.997 574.557C539.11 574.302 537.201 573.925 535.965 573.697C536.099 573.092 536.247 572.501 536.382 571.923C535.036 571.772 533.675 571.836 532.35 572.111V570.767C530.642 570.396 528.889 570.282 527.148 570.431C527.301 571.067 527.448 571.712 527.592 572.366C526.248 572.622 524.205 573.038 523.224 573.321C525.13 575.48 526.531 578.037 527.323 580.807C523.372 587.594 508.023 631.22 532.995 634.567C557.966 637.913 554.767 614.111 547.456 600.375Z" fill="#BDBDBD"/>
<path opacity="0.4" d="M547.456 600.375C540.131 586.653 537.134 585.685 535.83 581.277C536.818 578.812 538.228 576.538 539.997 574.557C539.11 574.302 537.201 573.925 535.965 573.697C536.099 573.092 536.247 572.501 536.382 571.923C535.036 571.772 533.675 571.836 532.35 572.111V570.767C530.642 570.396 528.889 570.282 527.148 570.431C527.301 571.067 527.448 571.712 527.592 572.366C526.248 572.622 524.205 573.038 523.224 573.321C525.13 575.48 526.531 578.037 527.323 580.807C523.372 587.594 508.023 631.22 532.995 634.567C557.966 637.913 554.767 614.111 547.456 600.375Z" fill="white"/>
<path d="M526.302 579.503C526.146 580.195 526.079 580.904 526.1 581.613C526.1 582.11 527.444 582.446 528.936 582.594C530.428 582.742 536.691 582.984 536.489 582.285C536.288 581.586 536.798 580.632 536.825 580.041C536.852 579.449 534.339 579.422 532.229 579.503C530.119 579.584 526.718 578.75 526.302 579.503Z" fill="#BDBDBD"/>
<path d="M511.773 630.024H513.01C513.251 630.024 513.44 629.89 513.426 629.742L512.848 624.366C512.848 624.204 512.62 624.083 512.364 624.083H511.168C510.926 624.083 510.738 624.204 510.752 624.366L511.33 629.742C511.303 629.916 511.518 630.024 511.773 630.024Z" fill="#BDBDBD"/>
<defs>
<linearGradient id="paint0_linear_0_1" x1="151" y1="222.5" x2="486" y2="222.5" gradientUnits="userSpaceOnUse">
<stop stop-color="#E8E8E8" stop-opacity="0.86"/>
<stop offset="1" stop-color="#26C061"/>
</linearGradient>
<clipPath id="clip0_0_1">
<rect width="396" height="323" fill="white" transform="translate(504 22)"/>
</clipPath>
</defs>
</svg>
